<?xml version="1.0" standalone="no"?>
<!DOCTYPE svg PUBLIC "-//W3C//DTD SVG 20010904//EN"
 "http://www.w3.org/TR/2001/REC-SVG-20010904/DTD/svg10.dtd">
<svg version="1.0" xmlns="http://www.w3.org/2000/svg"
 width="536.000000pt" height="388.000000pt" viewBox="0 0 536.000000 388.000000"
 preserveAspectRatio="xMidYMid meet">

<g transform="translate(0.000000,388.000000) scale(0.100000,-0.100000)"
fill="#000000" stroke="none">
<path d="M618 3810 c-33 -25 -36 -57 -8 -92 13 -18 43 -32 102 -48 161 -45
209 -76 245 -155 17 -38 18 -113 21 -1305 3 -1283 -2 -1522 -33 -1676 -40
-194 -125 -304 -235 -304 -56 0 -71 10 -126 83 -137 179 -205 237 -280 237
-59 0 -92 -15 -143 -63 -76 -74 -109 -177 -80 -254 38 -103 185 -162 454 -184
232 -20 334 11 514 155 85 69 214 203 272 286 150 212 282 496 319 686 8 42
13 383 15 1176 4 1071 4 1119 23 1160 27 62 77 101 176 137 48 17 93 31 101
31 26 0 75 51 75 78 -1 71 -21 74 -358 61 -158 -6 -370 -9 -472 -5 -102 3
-268 9 -370 12 -180 6 -186 6 -212 -16z"/>
<path d="M2073 3390 c-45 -10 -63 -27 -63 -62 0 -45 36 -72 120 -93 185 -44
223 -86 241 -261 15 -147 5 -2112 -11 -2166 -24 -82 -82 -123 -229 -162 -108
-29 -129 -40 -137 -70 -10 -42 0 -70 30 -85 24 -11 65 -11 246 -2 277 14 678
14 926 0 107 -6 210 -8 229 -5 67 13 84 86 29 122 -14 10 -57 25 -97 34 -159
39 -238 85 -280 163 -22 42 -22 48 -25 527 -2 380 1 490 11 510 29 57 171 26
249 -54 20 -20 74 -111 122 -201 233 -448 554 -894 729 -1014 68 -47 199 -106
287 -130 156 -43 387 -50 567 -16 179 34 275 117 277 238 1 76 -13 83 -186 90
-232 11 -314 37 -453 147 -124 99 -323 320 -494 550 -146 196 -363 524 -356
540 3 8 38 27 79 42 115 44 241 127 327 218 125 131 173 253 173 445 0 196
-50 322 -173 446 -137 135 -338 216 -626 249 -142 16 -483 13 -620 -6 -142
-20 -385 -22 -575 -6 -195 17 -281 20 -317 12z m1368 -209 c135 -51 220 -155
265 -326 27 -102 27 -383 0 -475 -54 -188 -185 -320 -353 -355 -101 -22 -171
-19 -223 8 -77 38 -75 26 -74 507 1 249 6 451 12 488 20 114 61 169 139 181
57 9 171 -4 234 -28z"/>
</g>
</svg>
